<svg xmlns="http://www.w3.org/2000/svg" viewBox="0 8.859999656677246 1096.31005859375 107.52570343017578" data-asc="0.9052734375" width="1096.31005859375" height="107.52570343017578"><defs/><g fill="#000000"><g transform="translate(0, 0)"><path d="M11.79 45.26L11.79 13.70L0 13.70L0 9.47L28.37 9.47L28.37 13.70L16.53 13.70L16.53 45.26L11.79 45.26ZM32.67 45.26L32.67 9.47L37.06 9.47L37.06 22.31Q40.14 18.75 44.82 18.75Q47.71 18.75 49.83 19.89Q51.95 21.02 52.87 23.02Q53.78 25.02 53.78 28.83L53.78 45.26L49.39 45.26L49.39 28.83Q49.39 25.54 47.96 24.04Q46.53 22.53 43.92 22.53Q41.97 22.53 40.25 23.55Q38.53 24.56 37.79 26.29Q37.06 28.03 37.06 31.08L37.06 45.26L32.67 45.26ZM60.50 14.53L60.50 9.47L64.89 9.47L64.89 14.53L60.50 14.53M60.50 45.26L60.50 19.34L64.89 19.34L64.89 45.26L60.50 45.26ZM69.82 37.52L74.17 36.84Q74.54 39.45 76.21 40.84Q77.88 42.24 80.88 42.24Q83.91 42.24 85.38 41.00Q86.84 39.77 86.84 38.11Q86.84 36.62 85.55 35.77Q84.64 35.18 81.05 34.28Q76.22 33.06 74.35 32.17Q72.49 31.27 71.52 29.70Q70.56 28.13 70.56 26.22Q70.56 24.49 71.35 23.01Q72.14 21.53 73.51 20.56Q74.54 19.80 76.31 19.27Q78.08 18.75 80.10 18.75Q83.15 18.75 85.46 19.63Q87.77 20.51 88.87 22.01Q89.97 23.51 90.38 26.03L86.08 26.61Q85.79 24.61 84.39 23.49Q82.98 22.36 80.42 22.36Q77.39 22.36 76.10 23.36Q74.80 24.37 74.80 25.71Q74.80 26.56 75.34 27.25Q75.88 27.95 77.03 28.42Q77.69 28.66 80.91 29.54Q85.57 30.79 87.41 31.58Q89.26 32.37 90.31 33.89Q91.36 35.40 91.36 37.65Q91.36 39.84 90.08 41.78Q88.79 43.73 86.38 44.79Q83.96 45.85 80.91 45.85Q75.85 45.85 73.21 43.75Q70.56 41.65 69.82 37.52ZM110.50 14.53L110.50 9.47L114.89 9.47L114.89 14.53L110.50 14.53M110.50 45.26L110.50 19.34L114.89 19.34L114.89 45.26L110.50 45.26ZM119.82 37.52L124.17 36.84Q124.54 39.45 126.21 40.84Q127.88 42.24 130.88 42.24Q133.91 42.24 135.38 41.00Q136.84 39.77 136.84 38.11Q136.84 36.62 135.55 35.77Q134.64 35.18 131.05 34.28Q126.22 33.06 124.35 32.17Q122.49 31.27 121.52 29.70Q120.56 28.13 120.56 26.22Q120.56 24.49 121.35 23.01Q122.14 21.53 123.51 20.56Q124.54 19.80 126.31 19.27Q128.08 18.75 130.10 18.75Q133.15 18.75 135.46 19.63Q137.77 20.51 138.87 22.01Q139.97 23.51 140.38 26.03L136.08 26.61Q135.79 24.61 134.39 23.49Q132.98 22.36 130.42 22.36Q127.39 22.36 126.10 23.36Q124.80 24.37 124.80 25.71Q124.80 26.56 125.34 27.25Q125.88 27.95 127.03 28.42Q127.69 28.66 130.91 29.54Q135.57 30.79 137.41 31.58Q139.26 32.37 140.31 33.89Q141.36 35.40 141.36 37.65Q141.36 39.84 140.08 41.78Q138.79 43.73 136.38 44.79Q133.96 45.85 130.91 45.85Q125.85 45.85 123.21 43.75Q120.56 41.65 119.82 37.52ZM177.39 42.07Q174.95 44.14 172.69 45.00Q170.43 45.85 167.85 45.85Q163.57 45.85 161.28 43.76Q158.98 41.67 158.98 38.43Q158.98 36.52 159.85 34.95Q160.72 33.37 162.12 32.42Q163.53 31.47 165.28 30.98Q166.58 30.64 169.19 30.32Q174.51 29.69 177.03 28.81Q177.05 27.91 177.05 27.66Q177.05 24.98 175.81 23.88Q174.12 22.39 170.80 22.39Q167.70 22.39 166.22 23.47Q164.75 24.56 164.04 27.32L159.74 26.73Q160.33 23.97 161.67 22.28Q163.01 20.58 165.55 19.67Q168.09 18.75 171.44 18.75Q174.76 18.75 176.83 19.53Q178.91 20.31 179.88 21.50Q180.86 22.68 181.25 24.49Q181.47 25.61 181.47 28.54L181.47 34.40Q181.47 40.53 181.75 42.15Q182.03 43.77 182.86 45.26L178.27 45.26Q177.59 43.90 177.39 42.07M177.03 32.25Q174.63 33.23 169.85 33.91Q167.14 34.30 166.02 34.79Q164.89 35.28 164.28 36.22Q163.67 37.16 163.67 38.31Q163.67 40.06 165.00 41.24Q166.33 42.41 168.90 42.41Q171.44 42.41 173.41 41.30Q175.39 40.19 176.32 38.26Q177.03 36.77 177.03 33.86L177.03 32.25ZM200.42 37.52L204.76 36.84Q205.13 39.45 206.80 40.84Q208.47 42.24 211.47 42.24Q214.50 42.24 215.97 41.00Q217.43 39.77 217.43 38.11Q217.43 36.62 216.14 35.77Q215.23 35.18 211.65 34.28Q206.81 33.06 204.94 32.17Q203.08 31.27 202.11 29.70Q201.15 28.13 201.15 26.22Q201.15 24.49 201.94 23.01Q202.73 21.53 204.10 20.56Q205.13 19.80 206.90 19.27Q208.67 18.75 210.69 18.75Q213.75 18.75 216.05 19.63Q218.36 20.51 219.46 22.01Q220.56 23.51 220.97 26.03L216.67 26.61Q216.38 24.61 214.98 23.49Q213.57 22.36 211.01 22.36Q207.98 22.36 206.69 23.36Q205.40 24.37 205.40 25.71Q205.40 26.56 205.93 27.25Q206.47 27.95 207.62 28.42Q208.28 28.66 211.50 29.54Q216.16 30.79 218.01 31.58Q219.85 32.37 220.90 33.89Q221.95 35.40 221.95 37.65Q221.95 39.84 220.67 41.78Q219.38 43.73 216.97 44.79Q214.55 45.85 211.50 45.85Q206.45 45.85 203.80 43.75Q201.15 41.65 200.42 37.52ZM244.09 42.07Q241.65 44.14 239.39 45.00Q237.13 45.85 234.55 45.85Q230.27 45.85 227.98 43.76Q225.68 41.67 225.68 38.43Q225.68 36.52 226.55 34.95Q227.42 33.37 228.82 32.42Q230.22 31.47 231.98 30.98Q233.28 30.64 235.89 30.32Q241.21 29.69 243.73 28.81Q243.75 27.91 243.75 27.66Q243.75 24.98 242.50 23.88Q240.82 22.39 237.50 22.39Q234.40 22.39 232.92 23.47Q231.45 24.56 230.74 27.32L226.44 26.73Q227.03 23.97 228.37 22.28Q229.71 20.58 232.25 19.67Q234.79 18.75 238.13 18.75Q241.46 18.75 243.53 19.53Q245.61 20.31 246.58 21.50Q247.56 22.68 247.95 24.49Q248.17 25.61 248.17 28.54L248.17 34.40Q248.17 40.53 248.45 42.15Q248.73 43.77 249.56 45.26L244.97 45.26Q244.29 43.90 244.09 42.07M243.73 32.25Q241.33 33.23 236.55 33.91Q233.84 34.30 232.71 34.79Q231.59 35.28 230.98 36.22Q230.37 37.16 230.37 38.31Q230.37 40.06 231.70 41.24Q233.03 42.41 235.60 42.41Q238.13 42.41 240.11 41.30Q242.09 40.19 243.02 38.26Q243.73 36.77 243.73 33.86L243.73 32.25ZM254.98 45.26L254.98 19.34L258.91 19.34L258.91 22.97Q260.13 21.07 262.16 19.91Q264.18 18.75 266.77 18.75Q269.65 18.75 271.50 19.95Q273.34 21.14 274.10 23.29Q277.17 18.75 282.10 18.75Q285.96 18.75 288.04 20.89Q290.11 23.02 290.11 27.47L290.11 45.26L285.74 45.26L285.74 28.93Q285.74 26.29 285.31 25.13Q284.89 23.97 283.76 23.27Q282.64 22.56 281.13 22.56Q278.39 22.56 276.59 24.38Q274.78 26.20 274.78 30.20L274.78 45.26L270.39 45.26L270.39 28.42Q270.39 25.49 269.31 24.02Q268.24 22.56 265.80 22.56Q263.94 22.56 262.37 23.54Q260.79 24.51 260.08 26.39Q259.38 28.27 259.38 31.81L259.38 45.26L254.98 45.26ZM296.63 55.20L296.63 19.34L300.63 19.34L300.63 22.71Q302.05 20.73 303.83 19.74Q305.62 18.75 308.15 18.75Q311.47 18.75 314.01 20.46Q316.55 22.17 317.85 25.28Q319.14 28.39 319.14 32.10Q319.14 36.08 317.71 39.27Q316.28 42.46 313.56 44.15Q310.84 45.85 307.84 45.85Q305.64 45.85 303.89 44.92Q302.15 43.99 301.03 42.58L301.03 55.20L296.63 55.20M300.61 32.45Q300.61 37.45 302.64 39.84Q304.66 42.24 307.54 42.24Q310.47 42.24 312.56 39.76Q314.65 37.28 314.65 32.08Q314.65 27.12 312.61 24.66Q310.57 22.19 307.74 22.19Q304.93 22.19 302.77 24.82Q300.61 27.44 300.61 32.45ZM324.34 45.26L324.34 9.47L328.74 9.47L328.74 45.26L324.34 45.26ZM353.30 36.91L357.84 37.48Q356.76 41.46 353.86 43.65Q350.95 45.85 346.44 45.85Q340.75 45.85 337.41 42.35Q334.08 38.84 334.08 32.52Q334.08 25.98 337.45 22.36Q340.82 18.75 346.19 18.75Q351.39 18.75 354.69 22.29Q357.98 25.83 357.98 32.25Q357.98 32.64 357.96 33.42L338.62 33.42Q338.87 37.70 341.04 39.97Q343.21 42.24 346.46 42.24Q348.88 42.24 350.59 40.97Q352.29 39.70 353.30 36.91M338.87 29.81L353.34 29.81Q353.05 26.54 351.68 24.90Q349.58 22.36 346.24 22.36Q343.21 22.36 341.15 24.39Q339.09 26.42 338.87 29.81ZM378.30 45.26L378.30 22.75L374.41 22.75L374.41 19.34L378.30 19.34L378.30 16.58Q378.30 13.96 378.76 12.70Q379.39 10.99 380.99 9.92Q382.59 8.86 385.47 8.86Q387.33 8.86 389.58 9.30L388.92 13.13Q387.55 12.89 386.33 12.89Q384.33 12.89 383.50 13.75Q382.67 14.60 382.67 16.94L382.67 19.34L387.72 19.34L387.72 22.75L382.67 22.75L382.67 45.26L378.30 45.26ZM389.50 32.30Q389.50 25.10 393.51 21.63Q396.85 18.75 401.66 18.75Q407.01 18.75 410.40 22.25Q413.79 25.76 413.79 31.93Q413.79 36.94 412.29 39.81Q410.79 42.68 407.92 44.26Q405.05 45.85 401.66 45.85Q396.22 45.85 392.86 42.36Q389.50 38.87 389.50 32.30M394.02 32.30Q394.02 37.28 396.19 39.76Q398.36 42.24 401.66 42.24Q404.93 42.24 407.10 39.75Q409.28 37.26 409.28 32.15Q409.28 27.34 407.09 24.87Q404.91 22.39 401.66 22.39Q398.36 22.39 396.19 24.85Q394.02 27.32 394.02 32.30ZM418.90 45.26L418.90 19.34L422.85 19.34L422.85 23.27Q424.37 20.51 425.65 19.63Q426.93 18.75 428.47 18.75Q430.69 18.75 432.98 20.17L431.47 24.24Q429.86 23.29 428.25 23.29Q426.81 23.29 425.66 24.16Q424.51 25.02 424.02 26.56Q423.29 28.91 423.29 31.69L423.29 45.26L418.90 45.26ZM443.36 45.26L457.10 9.47L462.21 9.47L476.86 45.26L471.46 45.26L467.29 34.42L452.32 34.42L448.39 45.26L443.36 45.26M453.69 30.57L465.82 30.57L462.08 20.65Q460.38 16.14 459.55 13.23Q458.86 16.67 457.62 20.07L453.69 30.57ZM481.45 45.26L481.45 9.47L486.18 9.47L486.18 45.26L481.45 45.26ZM503.64 45.26L503.64 13.70L491.85 13.70L491.85 9.47L520.21 9.47L520.21 13.70L508.37 13.70L508.37 45.26L503.64 45.26ZM517.33 32.30Q517.33 25.10 521.34 21.63Q524.68 18.75 529.49 18.75Q534.84 18.75 538.23 22.25Q541.63 25.76 541.63 31.93Q541.63 36.94 540.12 39.81Q538.62 42.68 535.75 44.26Q532.89 45.85 529.49 45.85Q524.05 45.85 520.69 42.36Q517.33 38.87 517.33 32.30M521.85 32.30Q521.85 37.28 524.02 39.76Q526.20 42.24 529.49 42.24Q532.76 42.24 534.94 39.75Q537.11 37.26 537.11 32.15Q537.11 27.34 534.92 24.87Q532.74 22.39 529.49 22.39Q526.20 22.39 524.02 24.85Q521.85 27.32 521.85 32.30ZM545.14 32.30Q545.14 25.10 549.15 21.63Q552.49 18.75 557.30 18.75Q562.65 18.75 566.04 22.25Q569.43 25.76 569.43 31.93Q569.43 36.94 567.93 39.81Q566.43 42.68 563.56 44.26Q560.69 45.85 557.30 45.85Q551.86 45.85 548.50 42.36Q545.14 38.87 545.14 32.30M549.66 32.30Q549.66 37.28 551.83 39.76Q554.00 42.24 557.30 42.24Q560.57 42.24 562.74 39.75Q564.92 37.26 564.92 32.15Q564.92 27.34 562.73 24.87Q560.55 22.39 557.30 22.39Q554.00 22.39 551.83 24.85Q549.66 27.32 549.66 32.30ZM574.49 45.26L574.49 9.47L578.88 9.47L578.88 45.26L574.49 45.26ZM585.72 45.26L585.72 9.47L590.11 9.47L590.11 29.88L600.51 19.34L606.20 19.34L596.29 28.96L607.20 45.26L601.78 45.26L593.21 32.01L590.11 34.99L590.11 45.26L585.72 45.26ZM610.72 14.53L610.72 9.47L615.11 9.47L615.11 14.53L610.72 14.53M610.72 45.26L610.72 19.34L615.11 19.34L615.11 45.26L610.72 45.26ZM631.40 41.33L632.03 45.21Q630.18 45.61 628.71 45.61Q626.32 45.61 625 44.85Q623.68 44.09 623.14 42.86Q622.61 41.63 622.61 37.67L622.61 22.75L619.38 22.75L619.38 19.34L622.61 19.34L622.61 12.92L626.98 10.28L626.98 19.34L631.40 19.34L631.40 22.75L626.98 22.75L626.98 37.92Q626.98 39.79 627.21 40.33Q627.44 40.87 627.97 41.19Q628.49 41.50 629.47 41.50Q630.20 41.50 631.40 41.33ZM658.35 45.26L658.35 13.70L646.56 13.70L646.56 9.47L674.93 9.47L674.93 13.70L663.09 13.70L663.09 45.26L658.35 45.26ZM672.05 32.30Q672.05 25.10 676.05 21.63Q679.39 18.75 684.20 18.75Q689.55 18.75 692.94 22.25Q696.34 25.76 696.34 31.93Q696.34 36.94 694.84 39.81Q693.33 42.68 690.47 44.26Q687.60 45.85 684.20 45.85Q678.76 45.85 675.40 42.36Q672.05 38.87 672.05 32.30M676.56 32.30Q676.56 37.28 678.74 39.76Q680.91 42.24 684.20 42.24Q687.48 42.24 689.65 39.75Q691.82 37.26 691.82 32.15Q691.82 27.34 689.64 24.87Q687.45 22.39 684.20 22.39Q680.91 22.39 678.74 24.85Q676.56 27.32 676.56 32.30ZM699.85 32.30Q699.85 25.10 703.86 21.63Q707.20 18.75 712.01 18.75Q717.36 18.75 720.75 22.25Q724.15 25.76 724.15 31.93Q724.15 36.94 722.64 39.81Q721.14 42.68 718.27 44.26Q715.41 45.85 712.01 45.85Q706.57 45.85 703.21 42.36Q699.85 38.87 699.85 32.30M704.37 32.30Q704.37 37.28 706.54 39.76Q708.72 42.24 712.01 42.24Q715.28 42.24 717.46 39.75Q719.63 37.26 719.63 32.15Q719.63 27.34 717.44 24.87Q715.26 22.39 712.01 22.39Q708.72 22.39 706.54 24.85Q704.37 27.32 704.37 32.30ZM729.20 45.26L729.20 9.47L733.59 9.47L733.59 45.26L729.20 45.26ZM738.65 37.52L742.99 36.84Q743.36 39.45 745.03 40.84Q746.70 42.24 749.71 42.24Q752.73 42.24 754.20 41.00Q755.66 39.77 755.66 38.11Q755.66 36.62 754.37 35.77Q753.47 35.18 749.88 34.28Q745.04 33.06 743.18 32.17Q741.31 31.27 740.34 29.70Q739.38 28.13 739.38 26.22Q739.38 24.49 740.17 23.01Q740.97 21.53 742.33 20.56Q743.36 19.80 745.13 19.27Q746.90 18.75 748.93 18.75Q751.98 18.75 754.28 19.63Q756.59 20.51 757.69 22.01Q758.79 23.51 759.20 26.03L754.91 26.61Q754.61 24.61 753.21 23.49Q751.81 22.36 749.24 22.36Q746.22 22.36 744.92 23.36Q743.63 24.37 743.63 25.71Q743.63 26.56 744.17 27.25Q744.70 27.95 745.85 28.42Q746.51 28.66 749.73 29.54Q754.39 30.79 756.24 31.58Q758.08 32.37 759.13 33.89Q760.18 35.40 760.18 37.65Q760.18 39.84 758.90 41.78Q757.62 43.73 755.20 44.79Q752.78 45.85 749.73 45.85Q744.68 45.85 742.03 43.75Q739.38 41.65 738.65 37.52ZM788.89 41.33L789.53 45.21Q787.67 45.61 786.21 45.61Q783.81 45.61 782.50 44.85Q781.18 44.09 780.64 42.86Q780.10 41.63 780.10 37.67L780.10 22.75L776.88 22.75L776.88 19.34L780.10 19.34L780.10 12.92L784.47 10.28L784.47 19.34L788.89 19.34L788.89 22.75L784.47 22.75L784.47 37.92Q784.47 39.79 784.70 40.33Q784.94 40.87 785.46 41.19Q785.99 41.50 786.96 41.50Q787.70 41.50 788.89 41.33ZM791.55 32.30Q791.55 25.10 795.56 21.63Q798.90 18.75 803.71 18.75Q809.06 18.75 812.45 22.25Q815.84 25.76 815.84 31.93Q815.84 36.94 814.34 39.81Q812.84 42.68 809.97 44.26Q807.10 45.85 803.71 45.85Q798.27 45.85 794.91 42.36Q791.55 38.87 791.55 32.30M796.07 32.30Q796.07 37.28 798.24 39.76Q800.42 42.24 803.71 42.24Q806.98 42.24 809.16 39.75Q811.33 37.26 811.33 32.15Q811.33 27.34 809.14 24.87Q806.96 22.39 803.71 22.39Q800.42 22.39 798.24 24.85Q796.07 27.32 796.07 32.30ZM833.13 37.52L837.48 36.84Q837.84 39.45 839.51 40.84Q841.19 42.24 844.19 42.24Q847.22 42.24 848.68 41.00Q850.15 39.77 850.15 38.11Q850.15 36.62 848.85 35.77Q847.95 35.18 844.36 34.28Q839.53 33.06 837.66 32.17Q835.79 31.27 834.83 29.70Q833.86 28.13 833.86 26.22Q833.86 24.49 834.66 23.01Q835.45 21.53 836.82 20.56Q837.84 19.80 839.61 19.27Q841.38 18.75 843.41 18.75Q846.46 18.75 848.77 19.63Q851.07 20.51 852.17 22.01Q853.27 23.51 853.69 26.03L849.39 26.61Q849.10 24.61 847.69 23.49Q846.29 22.36 843.73 22.36Q840.70 22.36 839.40 23.36Q838.11 24.37 838.11 25.71Q838.11 26.56 838.65 27.25Q839.18 27.95 840.33 28.42Q840.99 28.66 844.21 29.54Q848.88 30.79 850.72 31.58Q852.56 32.37 853.61 33.89Q854.66 35.40 854.66 37.65Q854.66 39.84 853.38 41.78Q852.10 43.73 849.68 44.79Q847.27 45.85 844.21 45.85Q839.16 45.85 836.51 43.75Q833.86 41.65 833.13 37.52ZM859.89 45.26L859.89 9.47L864.28 9.47L864.28 22.31Q867.36 18.75 872.05 18.75Q874.93 18.75 877.05 19.89Q879.17 21.02 880.09 23.02Q881.01 25.02 881.01 28.83L881.01 45.26L876.61 45.26L876.61 28.83Q876.61 25.54 875.18 24.04Q873.75 22.53 871.14 22.53Q869.19 22.53 867.47 23.55Q865.75 24.56 865.01 26.29Q864.28 28.03 864.28 31.08L864.28 45.26L859.89 45.26ZM886.06 32.30Q886.06 25.10 890.06 21.63Q893.41 18.75 898.22 18.75Q903.56 18.75 906.96 22.25Q910.35 25.76 910.35 31.93Q910.35 36.94 908.85 39.81Q907.35 42.68 904.48 44.26Q901.61 45.85 898.22 45.85Q892.77 45.85 889.42 42.36Q886.06 38.87 886.06 32.30M890.58 32.30Q890.58 37.28 892.75 39.76Q894.92 42.24 898.22 42.24Q901.49 42.24 903.66 39.75Q905.83 37.26 905.83 32.15Q905.83 27.34 903.65 24.87Q901.46 22.39 898.22 22.39Q894.92 22.39 892.75 24.85Q890.58 27.32 890.58 32.30ZM920.29 45.26L912.35 19.34L916.89 19.34L921.02 34.30L922.56 39.87Q922.66 39.45 923.90 34.52L928.03 19.34L932.54 19.34L936.43 34.38L937.72 39.33L939.21 34.33L943.65 19.34L947.92 19.34L939.82 45.26L935.25 45.26L931.13 29.74L930.13 25.32L924.88 45.26L920.29 45.26ZM965.53 14.53L965.53 9.47L969.92 9.47L969.92 14.53L965.53 14.53M965.53 45.26L965.53 19.34L969.92 19.34L969.92 45.26L965.53 45.26ZM976.61 45.26L976.61 19.34L980.54 19.34L980.54 22.97Q981.76 21.07 983.79 19.91Q985.82 18.75 988.40 18.75Q991.28 18.75 993.13 19.95Q994.97 21.14 995.73 23.29Q998.80 18.75 1003.74 18.75Q1007.59 18.75 1009.67 20.89Q1011.74 23.02 1011.74 27.47L1011.74 45.26L1007.37 45.26L1007.37 28.93Q1007.37 26.29 1006.95 25.13Q1006.52 23.97 1005.40 23.27Q1004.27 22.56 1002.76 22.56Q1000.02 22.56 998.22 24.38Q996.41 26.20 996.41 30.20L996.41 45.26L992.02 45.26L992.02 28.42Q992.02 25.49 990.94 24.02Q989.87 22.56 987.43 22.56Q985.57 22.56 984.00 23.54Q982.42 24.51 981.71 26.39Q981.01 28.27 981.01 31.81L981.01 45.26L976.61 45.26ZM1035.18 42.07Q1032.74 44.14 1030.48 45.00Q1028.22 45.85 1025.63 45.85Q1021.36 45.85 1019.07 43.76Q1016.77 41.67 1016.77 38.43Q1016.77 36.52 1017.64 34.95Q1018.51 33.37 1019.91 32.42Q1021.31 31.47 1023.07 30.98Q1024.37 30.64 1026.98 30.32Q1032.30 29.69 1034.81 28.81Q1034.84 27.91 1034.84 27.66Q1034.84 24.98 1033.59 23.88Q1031.91 22.39 1028.59 22.39Q1025.49 22.39 1024.01 23.47Q1022.53 24.56 1021.83 27.32L1017.53 26.73Q1018.12 23.97 1019.46 22.28Q1020.80 20.58 1023.34 19.67Q1025.88 18.75 1029.22 18.75Q1032.54 18.75 1034.62 19.53Q1036.69 20.31 1037.67 21.50Q1038.65 22.68 1039.04 24.49Q1039.26 25.61 1039.26 28.54L1039.26 34.40Q1039.26 40.53 1039.54 42.15Q1039.82 43.77 1040.65 45.26L1036.06 45.26Q1035.38 43.90 1035.18 42.07M1034.81 32.25Q1032.42 33.23 1027.64 33.91Q1024.93 34.30 1023.80 34.79Q1022.68 35.28 1022.07 36.22Q1021.46 37.16 1021.46 38.31Q1021.46 40.06 1022.79 41.24Q1024.12 42.41 1026.68 42.41Q1029.22 42.41 1031.20 41.30Q1033.18 40.19 1034.11 38.26Q1034.81 36.77 1034.81 33.86L1034.81 32.25ZM1045.26 47.41L1049.54 48.05Q1049.80 50.02 1051.03 50.93Q1052.66 52.15 1055.49 52.15Q1058.54 52.15 1060.21 50.93Q1061.87 49.71 1062.45 47.51Q1062.79 46.17 1062.77 41.87Q1059.89 45.26 1055.59 45.26Q1050.24 45.26 1047.31 41.41Q1044.38 37.55 1044.38 32.15Q1044.38 28.44 1045.73 25.31Q1047.07 22.17 1049.62 20.46Q1052.17 18.75 1055.62 18.75Q1060.21 18.75 1063.18 22.46L1063.18 19.34L1067.24 19.34L1067.24 41.75Q1067.24 47.80 1066.00 50.33Q1064.77 52.86 1062.10 54.32Q1059.42 55.79 1055.52 55.79Q1050.88 55.79 1048.02 53.70Q1045.17 51.61 1045.26 47.41M1048.90 31.84Q1048.90 36.94 1050.93 39.28Q1052.95 41.63 1056.01 41.63Q1059.03 41.63 1061.08 39.29Q1063.13 36.96 1063.13 31.98Q1063.13 27.22 1061.02 24.80Q1058.91 22.39 1055.93 22.39Q1053.00 22.39 1050.95 24.77Q1048.90 27.15 1048.90 31.84ZM1091.63 36.91L1096.17 37.48Q1095.09 41.46 1092.19 43.65Q1089.28 45.85 1084.77 45.85Q1079.08 45.85 1075.74 42.35Q1072.41 38.84 1072.41 32.52Q1072.41 25.98 1075.78 22.36Q1079.15 18.75 1084.52 18.75Q1089.72 18.75 1093.02 22.29Q1096.31 25.83 1096.31 32.25Q1096.31 32.64 1096.29 33.42L1076.95 33.42Q1077.20 37.70 1079.37 39.97Q1081.54 42.24 1084.79 42.24Q1087.21 42.24 1088.92 40.97Q1090.63 39.70 1091.63 36.91M1077.20 29.81L1091.67 29.81Q1091.38 26.54 1090.01 24.90Q1087.92 22.36 1084.57 22.36Q1081.54 22.36 1079.48 24.39Q1077.42 26.42 1077.20 29.81Z"/></g><g transform="translate(0, 60.595703125)"><path d="M18.26 35.77L22.58 36.33Q21.88 40.80 18.96 43.32Q16.04 45.85 11.79 45.85Q6.47 45.85 3.23 42.37Q0 38.89 0 32.40Q0 28.20 1.39 25.05Q2.78 21.90 5.63 20.32Q8.47 18.75 11.82 18.75Q16.04 18.75 18.73 20.89Q21.41 23.02 22.17 26.95L17.90 27.61Q17.29 25 15.73 23.68Q14.18 22.36 11.99 22.36Q8.67 22.36 6.59 24.74Q4.52 27.12 4.52 32.28Q4.52 37.50 6.52 39.87Q8.52 42.24 11.74 42.24Q14.33 42.24 16.06 40.65Q17.80 39.06 18.26 35.77ZM43.26 42.07Q40.82 44.14 38.56 45.00Q36.30 45.85 33.72 45.85Q29.44 45.85 27.15 43.76Q24.85 41.67 24.85 38.43Q24.85 36.52 25.72 34.95Q26.59 33.37 27.99 32.42Q29.39 31.47 31.15 30.98Q32.45 30.64 35.06 30.32Q40.38 29.69 42.90 28.81Q42.92 27.91 42.92 27.66Q42.92 24.98 41.67 23.88Q39.99 22.39 36.67 22.39Q33.57 22.39 32.09 23.47Q30.62 24.56 29.91 27.32L25.61 26.73Q26.20 23.97 27.54 22.28Q28.88 20.58 31.42 19.67Q33.96 18.75 37.30 18.75Q40.63 18.75 42.70 19.53Q44.78 20.31 45.75 21.50Q46.73 22.68 47.12 24.49Q47.34 25.61 47.34 28.54L47.34 34.40Q47.34 40.53 47.62 42.15Q47.90 43.77 48.73 45.26L44.14 45.26Q43.46 43.90 43.26 42.07M42.90 32.25Q40.50 33.23 35.72 33.91Q33.01 34.30 31.88 34.79Q30.76 35.28 30.15 36.22Q29.54 37.16 29.54 38.31Q29.54 40.06 30.87 41.24Q32.20 42.41 34.77 42.41Q37.30 42.41 39.28 41.30Q41.26 40.19 42.19 38.26Q42.90 36.77 42.90 33.86L42.90 32.25ZM54.15 55.20L54.15 19.34L58.15 19.34L58.15 22.71Q59.57 20.73 61.35 19.74Q63.13 18.75 65.67 18.75Q68.99 18.75 71.53 20.46Q74.07 22.17 75.37 25.28Q76.66 28.39 76.66 32.10Q76.66 36.08 75.23 39.27Q73.80 42.46 71.08 44.15Q68.36 45.85 65.36 45.85Q63.16 45.85 61.41 44.92Q59.67 43.99 58.54 42.58L58.54 55.20L54.15 55.20M58.13 32.45Q58.13 37.45 60.16 39.84Q62.18 42.24 65.06 42.24Q67.99 42.24 70.08 39.76Q72.17 37.28 72.17 32.08Q72.17 27.12 70.13 24.66Q68.09 22.19 65.26 22.19Q62.45 22.19 60.29 24.82Q58.13 27.44 58.13 32.45ZM98.88 42.07Q96.44 44.14 94.18 45.00Q91.92 45.85 89.33 45.85Q85.06 45.85 82.76 43.76Q80.47 41.67 80.47 38.43Q80.47 36.52 81.34 34.95Q82.20 33.37 83.61 32.42Q85.01 31.47 86.77 30.98Q88.06 30.64 90.67 30.32Q96.00 29.69 98.51 28.81Q98.54 27.91 98.54 27.66Q98.54 24.98 97.29 23.88Q95.61 22.39 92.29 22.39Q89.18 22.39 87.71 23.47Q86.23 24.56 85.52 27.32L81.23 26.73Q81.81 23.97 83.15 22.28Q84.50 20.58 87.04 19.67Q89.58 18.75 92.92 18.75Q96.24 18.75 98.32 19.53Q100.39 20.31 101.37 21.50Q102.34 22.68 102.73 24.49Q102.95 25.61 102.95 28.54L102.95 34.40Q102.95 40.53 103.23 42.15Q103.52 43.77 104.35 45.26L99.76 45.26Q99.07 43.90 98.88 42.07M98.51 32.25Q96.12 33.23 91.33 33.91Q88.62 34.30 87.50 34.79Q86.38 35.28 85.77 36.22Q85.16 37.16 85.16 38.31Q85.16 40.06 86.49 41.24Q87.82 42.41 90.38 42.41Q92.92 42.41 94.90 41.30Q96.88 40.19 97.80 38.26Q98.51 36.77 98.51 33.86L98.51 32.25ZM113.82 45.26L109.74 45.26L109.74 9.47L114.14 9.47L114.14 22.24Q116.92 18.75 121.24 18.75Q123.63 18.75 125.77 19.71Q127.91 20.68 129.28 22.42Q130.66 24.17 131.45 26.64Q132.23 29.10 132.23 31.91Q132.23 38.57 128.93 42.21Q125.63 45.85 121.02 45.85Q116.43 45.85 113.82 42.02L113.82 45.26M113.77 32.10Q113.77 36.77 115.04 38.84Q117.11 42.24 120.65 42.24Q123.54 42.24 125.63 39.73Q127.73 37.23 127.73 32.28Q127.73 27.20 125.72 24.78Q123.71 22.36 120.85 22.36Q117.97 22.36 115.87 24.87Q113.77 27.37 113.77 32.10ZM137.60 14.53L137.60 9.47L141.99 9.47L141.99 14.53L137.60 14.53M137.60 45.26L137.60 19.34L141.99 19.34L141.99 45.26L137.60 45.26ZM148.58 45.26L148.58 9.47L152.98 9.47L152.98 45.26L148.58 45.26ZM159.81 14.53L159.81 9.47L164.21 9.47L164.21 14.53L159.81 14.53M159.81 45.26L159.81 19.34L164.21 19.34L164.21 45.26L159.81 45.26ZM180.49 41.33L181.13 45.21Q179.27 45.61 177.81 45.61Q175.42 45.61 174.10 44.85Q172.78 44.09 172.24 42.86Q171.70 41.63 171.70 37.67L171.70 22.75L168.48 22.75L168.48 19.34L171.70 19.34L171.70 12.92L176.07 10.28L176.07 19.34L180.49 19.34L180.49 22.75L176.07 22.75L176.07 37.92Q176.07 39.79 176.31 40.33Q176.54 40.87 177.06 41.19Q177.59 41.50 178.56 41.50Q179.30 41.50 180.49 41.33ZM184.81 14.53L184.81 9.47L189.21 9.47L189.21 14.53L184.81 14.53M184.81 45.26L184.81 19.34L189.21 19.34L189.21 45.26L184.81 45.26ZM213.65 36.91L218.19 37.48Q217.11 41.46 214.21 43.65Q211.30 45.85 206.79 45.85Q201.10 45.85 197.77 42.35Q194.43 38.84 194.43 32.52Q194.43 25.98 197.80 22.36Q201.17 18.75 206.54 18.75Q211.74 18.75 215.04 22.29Q218.33 25.83 218.33 32.25Q218.33 32.64 218.31 33.42L198.97 33.42Q199.22 37.70 201.39 39.97Q203.56 42.24 206.81 42.24Q209.23 42.24 210.94 40.97Q212.65 39.70 213.65 36.91M199.22 29.81L213.70 29.81Q213.40 26.54 212.04 24.90Q209.94 22.36 206.59 22.36Q203.56 22.36 201.50 24.39Q199.44 26.42 199.22 29.81ZM221.95 37.52L226.29 36.84Q226.66 39.45 228.33 40.84Q230.00 42.24 233.01 42.24Q236.04 42.24 237.50 41.00Q238.96 39.77 238.96 38.11Q238.96 36.62 237.67 35.77Q236.77 35.18 233.18 34.28Q228.34 33.06 226.48 32.17Q224.61 31.27 223.65 29.70Q222.68 28.13 222.68 26.22Q222.68 24.49 223.47 23.01Q224.27 21.53 225.63 20.56Q226.66 19.80 228.43 19.27Q230.20 18.75 232.23 18.75Q235.28 18.75 237.59 19.63Q239.89 20.51 240.99 22.01Q242.09 23.51 242.50 26.03L238.21 26.61Q237.92 24.61 236.51 23.49Q235.11 22.36 232.54 22.36Q229.52 22.36 228.22 23.36Q226.93 24.37 226.93 25.71Q226.93 26.56 227.47 27.25Q228.00 27.95 229.15 28.42Q229.81 28.66 233.03 29.54Q237.70 30.79 239.54 31.58Q241.38 32.37 242.43 33.89Q243.48 35.40 243.48 37.65Q243.48 39.84 242.20 41.78Q240.92 43.73 238.50 44.79Q236.08 45.85 233.03 45.85Q227.98 45.85 225.33 43.75Q222.68 41.65 221.95 37.52ZM262.62 14.53L262.62 9.47L267.02 9.47L267.02 14.53L262.62 14.53M262.62 45.26L262.62 19.34L267.02 19.34L267.02 45.26L262.62 45.26ZM273.71 45.26L273.71 19.34L277.66 19.34L277.66 23.02Q280.52 18.75 285.91 18.75Q288.26 18.75 290.22 19.59Q292.19 20.43 293.16 21.80Q294.14 23.17 294.53 25.05Q294.78 26.27 294.78 29.32L294.78 45.26L290.38 45.26L290.38 29.49Q290.38 26.81 289.87 25.48Q289.36 24.15 288.05 23.35Q286.74 22.56 284.99 22.56Q282.18 22.56 280.14 24.34Q278.10 26.12 278.10 31.10L278.10 45.26L273.71 45.26ZM313.65 37.52L317.99 36.84Q318.36 39.45 320.03 40.84Q321.70 42.24 324.71 42.24Q327.73 42.24 329.20 41.00Q330.66 39.77 330.66 38.11Q330.66 36.62 329.37 35.77Q328.47 35.18 324.88 34.28Q320.04 33.06 318.18 32.17Q316.31 31.27 315.34 29.70Q314.38 28.13 314.38 26.22Q314.38 24.49 315.17 23.01Q315.97 21.53 317.33 20.56Q318.36 19.80 320.13 19.27Q321.90 18.75 323.93 18.75Q326.98 18.75 329.28 19.63Q331.59 20.51 332.69 22.01Q333.79 23.51 334.20 26.03L329.91 26.61Q329.61 24.61 328.21 23.49Q326.81 22.36 324.24 22.36Q321.22 22.36 319.92 23.36Q318.63 24.37 318.63 25.71Q318.63 26.56 319.17 27.25Q319.70 27.95 320.85 28.42Q321.51 28.66 324.73 29.54Q329.39 30.79 331.24 31.58Q333.08 32.37 334.13 33.89Q335.18 35.40 335.18 37.65Q335.18 39.84 333.90 41.78Q332.62 43.73 330.20 44.79Q327.78 45.85 324.73 45.85Q319.68 45.85 317.03 43.75Q314.38 41.65 313.65 37.52ZM347.61 45.26L337.74 19.34L342.38 19.34L347.95 34.86Q348.85 37.38 349.61 40.09Q350.20 38.04 351.25 35.16L357.01 19.34L361.52 19.34L351.71 45.26L347.61 45.26ZM364.60 47.41L368.87 48.05Q369.14 50.02 370.36 50.93Q372.00 52.15 374.83 52.15Q377.88 52.15 379.54 50.93Q381.20 49.71 381.79 47.51Q382.13 46.17 382.10 41.87Q379.22 45.26 374.93 45.26Q369.58 45.26 366.65 41.41Q363.72 37.55 363.72 32.15Q363.72 28.44 365.06 25.31Q366.41 22.17 368.96 20.46Q371.51 18.75 374.95 18.75Q379.54 18.75 382.52 22.46L382.52 19.34L386.57 19.34L386.57 41.75Q386.57 47.80 385.34 50.33Q384.11 52.86 381.43 54.32Q378.76 55.79 374.85 55.79Q370.21 55.79 367.36 53.70Q364.50 51.61 364.60 47.41M368.24 31.84Q368.24 36.94 370.26 39.28Q372.29 41.63 375.34 41.63Q378.37 41.63 380.42 39.29Q382.47 36.96 382.47 31.98Q382.47 27.22 380.36 24.80Q378.25 22.39 375.27 22.39Q372.34 22.39 370.29 24.77Q368.24 27.15 368.24 31.84ZM408.15 45.26L408.15 22.75L404.27 22.75L404.27 19.34L408.15 19.34L408.15 16.58Q408.15 13.96 408.62 12.70Q409.25 10.99 410.85 9.92Q412.45 8.86 415.33 8.86Q417.19 8.86 419.43 9.30L418.77 13.13Q417.41 12.89 416.19 12.89Q414.18 12.89 413.35 13.75Q412.52 14.60 412.52 16.94L412.52 19.34L417.58 19.34L417.58 22.75L412.52 22.75L412.52 45.26L408.15 45.26ZM419.36 32.30Q419.36 25.10 423.36 21.63Q426.71 18.75 431.52 18.75Q436.87 18.75 440.26 22.25Q443.65 25.76 443.65 31.93Q443.65 36.94 442.15 39.81Q440.65 42.68 437.78 44.26Q434.91 45.85 431.52 45.85Q426.07 45.85 422.72 42.36Q419.36 38.87 419.36 32.30M423.88 32.30Q423.88 37.28 426.05 39.76Q428.22 42.24 431.52 42.24Q434.79 42.24 436.96 39.75Q439.14 37.26 439.14 32.15Q439.14 27.34 436.95 24.87Q434.77 22.39 431.52 22.39Q428.22 22.39 426.05 24.85Q423.88 27.32 423.88 32.30ZM448.75 45.26L448.75 19.34L452.71 19.34L452.71 23.27Q454.22 20.51 455.51 19.63Q456.79 18.75 458.33 18.75Q460.55 18.75 462.84 20.17L461.33 24.24Q459.72 23.29 458.11 23.29Q456.67 23.29 455.52 24.16Q454.37 25.02 453.88 26.56Q453.15 28.91 453.15 31.69L453.15 45.26L448.75 45.26ZM465.45 45.26L465.45 19.34L469.38 19.34L469.38 22.97Q470.61 21.07 472.63 19.91Q474.66 18.75 477.25 18.75Q480.13 18.75 481.97 19.95Q483.81 21.14 484.57 23.29Q487.65 18.75 492.58 18.75Q496.44 18.75 498.51 20.89Q500.59 23.02 500.59 27.47L500.59 45.26L496.22 45.26L496.22 28.93Q496.22 26.29 495.79 25.13Q495.36 23.97 494.24 23.27Q493.12 22.56 491.60 22.56Q488.87 22.56 487.06 24.38Q485.25 26.20 485.25 30.20L485.25 45.26L480.86 45.26L480.86 28.42Q480.86 25.49 479.79 24.02Q478.71 22.56 476.27 22.56Q474.41 22.56 472.84 23.54Q471.26 24.51 470.56 26.39Q469.85 28.27 469.85 31.81L469.85 45.26L465.45 45.26ZM524.02 42.07Q521.58 44.14 519.32 45.00Q517.07 45.85 514.48 45.85Q510.21 45.85 507.91 43.76Q505.62 41.67 505.62 38.43Q505.62 36.52 506.48 34.95Q507.35 33.37 508.75 32.42Q510.16 31.47 511.91 30.98Q513.21 30.64 515.82 30.32Q521.14 29.69 523.66 28.81Q523.68 27.91 523.68 27.66Q523.68 24.98 522.44 23.88Q520.75 22.39 517.43 22.39Q514.33 22.39 512.85 23.47Q511.38 24.56 510.67 27.32L506.37 26.73Q506.96 23.97 508.30 22.28Q509.64 20.58 512.18 19.67Q514.72 18.75 518.07 18.75Q521.39 18.75 523.46 19.53Q525.54 20.31 526.51 21.50Q527.49 22.68 527.88 24.49Q528.10 25.61 528.10 28.54L528.10 34.40Q528.10 40.53 528.38 42.15Q528.66 43.77 529.49 45.26L524.90 45.26Q524.22 43.90 524.02 42.07M523.66 32.25Q521.26 33.23 516.48 33.91Q513.77 34.30 512.65 34.79Q511.52 35.28 510.91 36.22Q510.30 37.16 510.30 38.31Q510.30 40.06 511.63 41.24Q512.96 42.41 515.53 42.41Q518.07 42.41 520.04 41.30Q522.02 40.19 522.95 38.26Q523.66 36.77 523.66 33.86L523.66 32.25ZM544.51 41.33L545.14 45.21Q543.29 45.61 541.82 45.61Q539.43 45.61 538.11 44.85Q536.79 44.09 536.25 42.86Q535.72 41.63 535.72 37.67L535.72 22.75L532.50 22.75L532.50 19.34L535.72 19.34L535.72 12.92L540.09 10.28L540.09 19.34L544.51 19.34L544.51 22.75L540.09 22.75L540.09 37.92Q540.09 39.79 540.32 40.33Q540.55 40.87 541.08 41.19Q541.60 41.50 542.58 41.50Q543.31 41.50 544.51 41.33Z"/></g></g></svg>